<?xml version="1.0" encoding="utf-8"?>
<svg viewBox="57.913 18.615 923.969 1143.89" xmlns="http://www.w3.org/2000/svg" xmlns:bx="https://boxy-svg.com">
  <title>Missing Image</title>
  <g transform="matrix(1, 0, 0, 1, -6.324378, 88.672134)">
    <title>Icon</title>
    <rect x="86.563" y="-50.625" width="80.98" height="1105.135" style="fill: rgb(216, 216, 216);"/>
    <rect x="884.452" y="144.613" width="80.98" height="859.814" style="fill: rgb(216, 216, 216);" transform="matrix(0, -1, 1, 0, -52.09573, 1938.962036)"/>
    <rect x="884.452" y="151.824" width="80.98" height="902.686" style="fill: rgb(216, 216, 216);"/>
    <rect x="884.452" y="99.897" width="80.98" height="593.948" style="fill: rgb(216, 216, 216);" transform="matrix(0, -1, 1, 0, 47.401508, 914.807007)"/>
    <rect x="-820.244" y="-174.023" width="80.98" height="224.648" style="fill: rgb(216, 216, 216);" transform="matrix(-1, 0, 0, -1, 0, 0)"/>
    <rect x="-820.244" y="-174.023" width="80.98" height="224.648" style="fill: rgb(216, 216, 216);" transform="matrix(0, 1, -1, 0, 791.409058, 913.286987)"/>
    <path d="M 303.894 13.973 L 303.894 160.003 L 159.369 160.003 L 303.894 13.973 Z" style="fill: rgb(216, 216, 216);" transform="matrix(0.000022, 1, -1, 0.000022, 979.847046, -210.103638)" bx:shape="triangle 159.369 13.973 144.525 146.03 1 0 1@9235cfb2"/>
    <rect x="268.336" y="427.026" width="135.184" height="223.049" style="fill: rgb(216, 216, 216);" transform="matrix(0, -1, 1, 0, -16.126209, 1070.998169)"/>
    <rect x="268.336" y="427.026" width="135.184" height="223.049" style="fill: rgb(216, 216, 216);" transform="matrix(0, -1, 1, 0, -16.126209, 699.728271)"/>
    <rect x="268.716" y="437.686" width="135.184" height="223.049" style="fill: rgb(216, 216, 216);"/>
    <rect x="-776.133" y="437.686" width="135.184" height="223.049" transform="matrix(-1, 0, 0, 1, 0, 0)" style="fill: rgb(216, 216, 216);"/>
    <path d="M -363.975 -257.118 L -263.464 -156.364 L -464.487 -156.364 L -363.975 -257.118 Z" style="fill: rgb(216, 216, 216);" transform="matrix(-0.708329, 0.705882, -0.705882, -0.708329, -27.604816, 513.096741)" bx:shape="triangle -464.487 -257.118 201.023 100.754 0.5 0 1@2672b6a9"/>
    <path d="M 564.999 257.118 L 665.51 357.872 L 464.487 357.872 L 564.999 257.118 Z" style="fill: rgb(216, 216, 216);" transform="matrix(-0.708329, -0.705882, -0.705882, 0.708329, 993.29187, 876.992383)" bx:shape="triangle 464.487 257.118 201.023 100.754 0.5 0 1@e8f7f2dd"/>
    <path d="M -363.975 -257.118 L -263.464 -156.364 L -464.487 -156.364 L -363.975 -257.118 Z" style="fill: rgb(216, 216, 216);" transform="matrix(0.708329, 0.705882, 0.705882, -0.708329, 1072.453371, 513.096738)" bx:shape="triangle -464.487 -257.118 201.023 100.754 0.5 0 1@2672b6a9"/>
    <path d="M 564.999 257.118 L 665.51 357.872 L 464.487 357.872 L 564.999 257.118 Z" style="fill: rgb(216, 216, 216);" transform="matrix(0.708329, -0.705882, 0.705882, 0.708329, 51.556702, 876.992371)" bx:shape="triangle 464.487 257.118 201.023 100.754 0.5 0 1@e8f7f2dd"/>
    <path d="M -363.975 -257.118 L -263.464 -156.364 L -464.487 -156.364 L -363.975 -257.118 Z" style="fill: rgb(216, 216, 216);" transform="matrix(-0.707096, 0.707117, -0.707117, -0.707096, 235.322723, 777.10321)" bx:shape="triangle -464.487 -257.118 201.023 100.754 0.5 0 1@2672b6a9"/>
    <path d="M -363.975 -257.118 L -263.464 -156.364 L -464.487 -156.364 L -363.975 -257.118 Z" style="fill: rgb(216, 216, 216);" transform="matrix(0.707096, 0.707117, 0.707117, -0.707096, 809.525822, 777.103215)" bx:shape="triangle -464.487 -257.118 201.023 100.754 0.5 0 1@2672b6a9"/>
    <path d="M 564.999 257.118 L 665.51 357.872 L 464.487 357.872 L 564.999 257.118 Z" style="fill: rgb(216, 216, 216);" transform="matrix(0.707096, -0.707117, 0.707117, 0.707096, -210.973038, 614.767212)" bx:shape="triangle 464.487 257.118 201.023 100.754 0.5 0 1@e8f7f2dd"/>
    <path d="M 564.999 257.118 L 665.51 357.872 L 464.487 357.872 L 564.999 257.118 Z" style="fill: rgb(216, 216, 216);" transform="matrix(-0.707096, -0.707117, -0.707117, 0.707096, 1255.821659, 614.767217)" bx:shape="triangle 464.487 257.118 201.023 100.754 0.5 0 1@e8f7f2dd"/>
    <path d="M -363.975 -257.118 L -263.464 -156.364 L -464.487 -156.364 L -363.975 -257.118 Z" style="fill: rgb(216, 216, 216);" transform="matrix(1, 0.000015, 0.000015, -1, 886.402894, 242.699688)" bx:shape="triangle -464.487 -257.118 201.023 100.754 0.5 0 1@2672b6a9"/>
    <path d="M 564.999 257.118 L 665.51 357.872 L 464.487 357.872 L 564.999 257.118 Z" style="fill: rgb(216, 216, 216);" transform="matrix(1, -0.000015, 0.000015, 1, -42.578831, 341.948669)" bx:shape="triangle 464.487 257.118 201.023 100.754 0.5 0 1@e8f7f2dd"/>
    <path d="M 564.999 257.118 L 665.51 357.872 L 464.487 357.872 L 564.999 257.118 Z" style="fill: rgb(216, 216, 216);" transform="matrix(0.000015, 1, -1, 0.000015, 729.910828, -15.567905)" bx:shape="triangle 464.487 257.118 201.023 100.754 0.5 0 1@e8f7f2dd"/>
    <path d="M -363.975 -257.118 L -263.464 -156.364 L -464.487 -156.364 L -363.975 -257.118 Z" style="fill: rgb(216, 216, 216);" transform="matrix(-0.000015, 1, 1, 0.000015, 829.15984, 913.413819)" bx:shape="triangle -464.487 -257.118 201.023 100.754 0.5 0 1@2672b6a9"/>
  </g>
</svg>